<?xml version="1.0" standalone="no"?>
<!DOCTYPE svg PUBLIC "-//W3C//DTD SVG 1.1//EN" "http://www.w3.org/Graphics/SVG/1.1/DTD/svg11.dtd" >
<svg xmlns="http://www.w3.org/2000/svg" xmlns:xlink="http://www.w3.org/1999/xlink" version="1.1" viewBox="-10 0 2068 2048">
   <path fill="currentColor"
d="M1843 607q0 -83 -33 -156.5t-89.5 -128t-131 -86t-156.5 -31.5h-1006q16 -46 45 -84t67 -65t83.5 -41.5t94.5 -14.5h716q127 0 239 48.5t195.5 131.5t132 195t48.5 239v717q0 49 -14.5 94.5t-41.5 83.5t-65 67t-84 45v-1014zM302 2048q-60 0 -115 -24.5t-96.5 -66
t-66 -96.5t-24.5 -115v-1034q0 -61 24.5 -115.5t66 -96t96 -66t115.5 -24.5h1034q61 0 116 24.5t96 65.5t65.5 96t24.5 116v1034q0 61 -24.5 115.5t-66 96t-96 66t-115.5 24.5h-1034zM1331 1843q21 0 39.5 -8t33 -22t22.5 -32.5t8 -39.5v-1024q0 -21 -8 -40t-22 -33t-33 -22
t-40 -8h-1024q-21 0 -39.5 8t-32.5 22.5t-22 33t-8 39.5v1024q0 21 8 39.5t22 32.5t32.5 22t39.5 8h1024z" />
</svg>
