<?xml version="1.0" standalone="no"?><!DOCTYPE svg PUBLIC "-//W3C//DTD SVG 1.1//EN" "http://www.w3.org/Graphics/SVG/1.1/DTD/svg11.dtd"><svg t="1744904594285" class="icon" viewBox="0 0 1024 1024" version="1.1" xmlns="http://www.w3.org/2000/svg" p-id="2465" xmlns:xlink="http://www.w3.org/1999/xlink" width="200" height="200"><path d="M512.08704 539.3408v377.96864l-18.46784 18.46272c-52.85376 47.06304-134.31296 45.25568-185.36448-4.34688l-1.44384-1.44384c-52.13696-50.688-54.30784-133.23264-6.15424-187.17696l197.30944-197.30944c3.98336-3.98336 8.68864-5.79584 14.12096-6.15424z" fill="#027AFF" fill-opacity=".4" p-id="2466"></path><path d="M724.23936 742.8096c45.9776 54.66112 43.0848 135.03488-7.23968 185.35936s-131.42016 53.94432-185.728 7.6032l-18.82624-18.82624-0.3584 0.3584V539.3408c5.0688 0 10.8544 2.17088 14.84288 6.15424l197.30944 197.30944z" fill="#027AFF" fill-opacity=".2" p-id="2467"></path><path d="M459.6224 506.5216H81.664l-18.46784-18.46784c-47.06304-52.85888-45.25056-134.31808 4.34688-185.36448l1.44896-1.44896c50.688-52.13184 133.22752-54.30272 187.17184-6.15424L453.4784 492.40064c3.97824 3.97824 5.7856 8.68864 6.15424 14.11584z" fill="#027AFF" fill-opacity=".8" p-id="2468"></path><path d="M256.15872 718.67392c-54.66624 45.9776-135.04 43.07968-185.36448-7.23968s-53.94432-131.42016-7.6032-185.728L82.0224 506.88l-0.3584-0.3584H459.6224c0 5.0688-2.176 10.8544-6.15424 14.83776L256.1536 718.67392z" fill="#027AFF" fill-opacity=".6" p-id="2469"></path><path d="M564.3776 507.2384h377.96352l18.46784 18.46784c47.06304 52.85888 45.25056 134.31808-4.34688 185.36448l-1.44896 1.44896c-50.688 52.13184-133.22752 54.30272-187.17184 6.15424l-197.31456-197.31456c-3.97824-3.97824-5.7856-8.68864-6.15424-14.11584z" fill="#027AFF" fill-opacity=".3" p-id="2470"></path><path d="M767.84128 295.08608c54.66624-45.9776 135.04-43.07968 185.36448 7.23968s53.94432 131.42016 7.6032 185.728L941.9776 506.88l0.3584 0.3584H564.3776c0-5.0688 2.176-10.8544 6.15424-14.83776l197.31456-197.31456z" fill="#027AFF" fill-opacity=".1" p-id="2471"></path><path d="M668.76416 57.25184l95.57504 95.58016c15.93344 15.92832 15.93344 41.99424 0 57.92768l-220.84096 220.84096c-15.92832 15.92832-41.99936 15.92832-57.92768 0L264.7296 210.75968c-15.93344-15.93344-15.93344-41.99936 0-57.92768l95.57504-95.58016c7.6032-7.6032 18.10432-12.30848 28.96384-12.30848l250.89536 0.3584c10.8544 0 20.992 4.352 28.60032 11.95008z" fill="#027AFF" fill-opacity=".4" p-id="2472"></path><path d="M614.81984 106.12736l61.90592 61.91104a26.43968 26.43968 0 0 1 0 37.65248l-143.36512 143.36512a26.43968 26.43968 0 0 1-37.65248 0L352.34304 205.69088a26.43968 26.43968 0 0 1 0-37.65248l61.90592-61.91104c5.0688-5.0688 11.58656-7.9616 18.82624-7.9616h162.9184c7.23968 0 13.75744 2.8928 18.82624 7.9616z" fill="#027AFF" p-id="2473"></path></svg>