<svg width="28" height="29" xmlns="http://www.w3.org/2000/svg" xmlns:xlink="http://www.w3.org/1999/xlink" overflow="hidden"><defs><clipPath id="clip0"><rect x="580" y="205" width="28" height="29"/></clipPath><clipPath id="clip1"><rect x="580" y="206" width="27" height="28"/></clipPath><clipPath id="clip2"><rect x="580" y="206" width="27" height="28"/></clipPath><clipPath id="clip3"><rect x="580" y="206" width="27" height="28"/></clipPath><linearGradient x1="1.12445" y1="1.12481" x2="25.8748" y2="1.12481" gradientUnits="userSpaceOnUse" spreadMethod="pad" id="fill4"><stop offset="0" stop-color="#00055F" stop-opacity="0.84"/><stop offset="1" stop-color="#6F69F7" stop-opacity="0.84"/></linearGradient></defs><g clip-path="url(#clip0)" transform="translate(-580 -205)"><g clip-path="url(#clip1)"><g clip-path="url(#clip2)"><g clip-path="url(#clip3)"><path d="M14.1795 1.5075C14.6216 2.28375 15.0615 3.06225 15.5002 3.84188 15.5364 3.90535 15.6038 3.94447 15.6769 3.94425L21.9229 3.94425C22.1186 3.94425 22.2851 4.068 22.4246 4.31212L24.0604 7.20337C24.2741 7.5825 24.3304 7.74113 24.0874 8.145 23.7949 8.62875 23.5103 9.117 23.2324 9.6075L22.8195 10.3477C22.7002 10.5682 22.5686 10.6627 22.7745 10.9237L25.758 16.1404C25.9515 16.479 25.8829 16.6961 25.7096 17.0066 25.218 17.8898 24.7174 18.7661 24.2078 19.6391 24.0289 19.9451 23.8118 20.061 23.4427 20.0554 22.5686 20.0374 21.6967 20.0441 20.8249 20.0734 20.7869 20.0753 20.7525 20.0965 20.7337 20.1296 19.7278 21.9119 18.7134 23.6894 17.6906 25.4621 17.5005 25.7917 17.2631 25.8705 16.875 25.8716 15.7534 25.875 14.6228 25.8761 13.4809 25.8739 13.2645 25.8733 13.0649 25.757 12.9577 25.569L11.4559 22.9556C11.438 22.9207 11.4017 22.8993 11.3625 22.9005L5.60475 22.9005C5.28412 22.9342 4.98263 22.8994 4.69913 22.797L2.89575 19.6807C2.78722 19.493 2.78637 19.2618 2.8935 19.0732L4.25138 16.6882C4.29073 16.6196 4.29073 16.5353 4.25138 16.4666 3.54405 15.242 2.84092 14.015 2.142 12.7856L1.25325 11.2163C1.07325 10.8675 1.05862 10.6582 1.36012 10.1306 1.88325 9.216 2.403 8.3025 2.9205 7.39012 3.069 7.12687 3.2625 7.01438 3.5775 7.01325 4.54837 7.00916 5.51925 7.00879 6.49013 7.01213 6.54004 7.01174 6.58595 6.98471 6.6105 6.94125L9.76725 1.43437C9.86462 1.26386 10.0456 1.15834 10.242 1.15762 10.8315 1.1565 11.4266 1.15763 12.0229 1.15087L13.167 1.125C13.5506 1.12162 13.9815 1.161 14.1795 1.5075ZM10.3185 1.96088C10.2944 1.96086 10.2721 1.97373 10.26 1.99462L7.03575 7.6365C7.00425 7.6906 6.94647 7.72398 6.88387 7.72425L3.65963 7.72425C3.59663 7.72425 3.58088 7.75237 3.6135 7.8075L10.1498 19.233C10.1779 19.2803 10.1644 19.3028 10.1115 19.3039L6.96712 19.3207C6.87333 19.3176 6.78598 19.3683 6.74213 19.4512L5.25712 22.05C5.20763 22.1377 5.2335 22.1828 5.33363 22.1828L11.7641 22.1917C11.8159 22.1917 11.8541 22.2143 11.8811 22.2604L13.4595 25.0211C13.5113 25.1123 13.563 25.1134 13.6159 25.0211L19.2476 15.1661 20.1285 13.6114C20.1452 13.5816 20.1829 13.5709 20.2127 13.5876 20.2227 13.5932 20.2309 13.6014 20.2365 13.6114L21.8385 16.4576C21.863 16.501 21.9091 16.5277 21.9589 16.5274L25.0672 16.5049C25.0835 16.505 25.0985 16.4964 25.1066 16.4824 25.1144 16.4684 25.1144 16.4514 25.1066 16.4374L21.8441 10.7156C21.8202 10.6766 21.8202 10.6275 21.8441 10.5885L22.1737 10.0181 23.4338 7.794C23.4608 7.74788 23.4472 7.72425 23.3944 7.72425L10.35 7.72425C10.2836 7.72425 10.2679 7.695 10.3016 7.63763L11.9149 4.8195C11.9395 4.78031 11.9395 4.73044 11.9149 4.69125L10.3781 1.99575C10.3662 1.97407 10.3433 1.96068 10.3185 1.96088ZM17.3948 10.9834C17.4465 10.9834 17.46 11.0059 17.433 11.0509L16.497 12.699 13.5574 17.8571C13.5461 17.8776 13.5245 17.8901 13.5011 17.8898 13.4779 17.8897 13.4565 17.8772 13.4449 17.8571L9.56025 11.0711C9.53775 11.0329 9.549 11.0126 9.59175 11.0104L9.83475 10.9969 17.397 10.9834Z" fill="url(#fill4)" fill-rule="nonzero" transform="matrix(1 0 0 1.03704 580 206)"/></g></g></g></g></svg>