<?xml version="1.0" encoding="UTF-8"?>
<svg width="196px" height="196px" viewBox="0 0 196 196" version="1.1" xmlns="http://www.w3.org/2000/svg" xmlns:xlink="http://www.w3.org/1999/xlink">
    <title>切片</title>
    <defs>
        <path d="M55.364887,2.26023592e-15 L140.055224,2.26023592e-15 C159.508441,2.26023592e-15 166.562648,2.02548384 173.674454,5.82891908 C180.786259,9.63235431 186.367646,15.2137409 190.171081,22.3255465 C193.974516,29.437352 196,36.4915588 196,55.9447763 L196,140.055224 C196,159.508441 193.974516,166.562648 190.171081,173.674454 C186.367646,180.786259 180.786259,186.367646 173.674454,190.171081 C166.562648,193.974516 159.508441,196 140.055224,196 L55.9447763,196 C36.4915588,196 29.437352,193.974516 22.3255465,190.171081 C15.2137409,186.367646 9.63235431,180.786259 5.82891908,173.674454 C2.0635182,166.633766 0.040687472,159.649531 1.50682395e-15,140.635113 L1.50682395e-15,55.9447763 C1.50682395e-15,36.4915588 2.02548384,29.437352 5.82891908,22.3255465 C9.63235431,15.2137409 15.2137409,9.63235431 22.3255465,5.82891908 C29.366234,2.0635182 36.3504689,0.040687472 55.364887,2.26023592e-15 L55.364887,2.26023592e-15 Z" id="path-1"></path>
        <linearGradient x1="50%" y1="0%" x2="50%" y2="100%" id="linearGradient-3">
            <stop stop-color="#6BD8FC" offset="0%"></stop>
            <stop stop-color="#5D66F4" offset="100%"></stop>
        </linearGradient>
    </defs>
    <g id="Page-1" stroke="none" stroke-width="1" fill="none" fill-rule="evenodd">
        <g id="Icon">
            <mask id="mask-2" fill="white">
                <use xlink:href="#path-1"></use>
            </mask>
            <use id="蒙版" fill="#000000" xlink:href="#path-1"></use>
            <g mask="url(#mask-2)" id="AiChat">
                <g>
                    <rect id="矩形" fill="url(#linearGradient-3)" x="0" y="0" width="196" height="196"></rect>
                    <g id="LOGO" transform="translate(27.179688, 30.242188)">
                        <path d="M77.4687675,19.0624722 C77.0934848,19.0463562 76.7444511,19.0325797 76.4297231,19.0224423 C71.8787708,18.8740197 68.1851991,15.3305938 68.1851991,10.7765429 L68.1851991,-7.79803241e-05 C68.1851991,-7.79803241e-05 51.3718072,18.4552654 34.8154475,21.1772986 C34.7039543,21.1957539 34.5994781,21.2134294 34.5012393,21.2313649 C6.75423066,25.9733484 -7.79673165e-05,39.5057939 -7.79673165e-05,72.6141601 C-7.79673165e-05,117.014337 12.1441113,126.209777 70.7815108,126.209777 C129.41865,126.209777 141.56284,117.014337 141.56284,72.6141601 C141.56284,29.9555436 130.352439,19.7939276 77.4687675,19.0624722" id="头" fill="#FFFFFF"></path>
                        <path d="M103.787571,100.147427 L37.7752428,100.147427 C23.2782599,100.147427 11.5262463,88.3934526 11.5262463,73.8940511 C11.5262463,59.3946496 23.2782599,47.6406753 37.7752428,47.6406753 L103.787571,47.6406753 C118.284294,47.6406753 130.036567,59.3946496 130.036567,73.8940511 C130.036567,88.3934526 118.284294,100.147427 103.787571,100.147427" id="脸" fill="#36374B"></path>
                        <path d="M93.0315117,80.9823326 C88.071231,80.9823326 84.0499367,76.9603674 84.0499367,71.9992592 C84.0499367,67.0378911 88.071231,63.0161858 93.0315117,63.0161858 C97.9917924,63.0161858 102.013087,67.0378911 102.013087,71.9992592 C102.013087,76.9603674 97.9917924,80.9823326 93.0315117,80.9823326 M57.0708802,78.7198375 C55.3485822,78.7198375 53.9521875,77.3232099 53.9521875,75.6006245 C53.9521875,73.3490726 52.1207353,71.5173148 49.8698188,71.5173148 C47.6186425,71.5173148 45.7871903,73.3490726 45.7871903,75.6006245 C45.7871903,77.3232099 44.3907956,78.7198375 42.6684976,78.7198375 C40.9461996,78.7198375 39.5498049,77.3232099 39.5498049,75.6006245 C39.5498049,69.9091006 44.1792443,65.2788889 49.8698188,65.2788889 C55.5603934,65.2788889 60.1895728,69.9091006 60.1895728,75.6006245 C60.1895728,77.3232099 58.7931782,78.7198375 57.0708802,78.7198375" id="眼睛" fill="#00F2E0"></path>
                    </g>
                </g>
            </g>
        </g>
    </g>
</svg>