<?xml version="1.0" standalone="no"?><!DOCTYPE svg PUBLIC "-//W3C//DTD SVG 1.1//EN" "http://www.w3.org/Graphics/SVG/1.1/DTD/svg11.dtd"><svg t="1592303790245" class="icon" viewBox="0 0 1024 1024" version="1.1" xmlns="http://www.w3.org/2000/svg" p-id="3565" xmlns:xlink="http://www.w3.org/1999/xlink" width="200" height="200"><defs><style type="text/css"></style></defs><path d="M0 0h1024v1024H0z" fill="transparent" p-id="3566"></path><path d="M531.298462 553.747692c24.024615-47.261538 104.369231-58.683077 134.695384-17.32923 22.449231 30.326154 68.923077 71.68 112.246154 30.326153 103.187692-99.643077 10.24-263.876923-120.123077-331.618461-144.541538-74.830769-297.353846-24.418462-387.938461 66.56-55.532308 55.926154-106.732308 159.113846-72.073847 260.726154s122.092308 92.16 172.11077 81.92c64.590769-13.390769 124.061538-17.329231 161.083077-90.584616z" fill="#D4EEFF" p-id="3567"></path><path d="M127.606154 663.236923h118.153846c2.363077 0 3.938462 1.575385 3.938462 3.938462s-1.575385 3.938462-3.938462 3.938461h-118.153846c-2.363077 0-3.938462-1.575385-3.938462-3.938461s1.969231-3.938462 3.938462-3.938462z" fill="#EDF2F6" p-id="3568"></path><path d="M175.261538 716.406154h220.553847c4.332308 0 7.876923 3.544615 7.876923 7.876923s-3.544615 7.876923-7.876923 7.876923h-220.553847c-4.332308 0-7.876923-3.544615-7.876923-7.876923s3.544615-7.876923 7.876923-7.876923zM486.4 716.406154h358.4c4.332308 0 7.876923 3.544615 7.876923 7.876923s-3.544615 7.876923-7.876923 7.876923h-358.4c-4.332308 0-7.876923-3.544615-7.876923-7.876923s3.544615-7.876923 7.876923-7.876923z" fill="#E3EEF7" p-id="3569"></path><path d="M783.753846 663.236923h118.153846c2.363077 0 3.938462 1.575385 3.938462 3.938462s-1.575385 3.938462-3.938462 3.938461h-118.153846c-2.363077 0-3.938462-1.575385-3.938461-3.938461s1.969231-3.938462 3.938461-3.938462zM371.003077 783.36h90.584615c3.150769 0 5.907692 2.756923 5.907693 5.907692s-2.756923 5.907692-5.907693 5.907693h-90.584615c-3.150769 0-5.907692-2.756923-5.907692-5.907693s2.756923-5.907692 5.907692-5.907692z" fill="#EDF2F6" p-id="3570"></path><path d="M683.323077 783.36h90.584615c3.150769 0 5.907692 2.756923 5.907693 5.907692s-2.756923 5.907692-5.907693 5.907693h-90.584615c-3.150769 0-5.907692-2.756923-5.907692-5.907693s2.756923-5.907692 5.907692-5.907692z" fill="#E3EEF7" p-id="3571"></path><path d="M386.363077 540.356923c1.969231-26.781538 12.209231-52.381538 29.144615-73.255385 20.48-24.812308 45.686154-37.809231 75.224616-37.80923 18.510769 0.393846 36.627692 5.12 52.381538 14.572307 3.150769-2.756923 5.907692-5.907692 7.876923-9.452307 2.363077-3.544615 3.938462-7.483077 4.726154-11.421539-9.452308-7.483077-20.086154-12.996923-31.901538-16.147692-10.24-3.544615-20.873846-5.513846-31.901539-5.513846-38.596923-0.787692-75.618462 16.147692-100.036923 45.686154-25.206154 29.144615-38.596923 66.56-38.203077 104.763077 0 6.301538 0.393846 12.209231 1.181539 18.510769 8.270769-11.815385 19.298462-21.661538 31.507692-29.932308z" fill="#549EF6" p-id="3572"></path><path d="M166.596923 648.270769c15.36-3.150769 30.72-6.301538 46.473846-10.24 1.969231 9.452308 3.938462 18.510769 5.907693 26.781539h27.56923c-2.363077-12.603077-4.332308-24.418462-5.907692-35.052308 18.116923-5.513846 35.84-12.603077 53.169231-21.267692-1.181538-7.483077-3.544615-14.966154-6.695385-21.661539-16.541538 5.907692-33.870769 10.633846-51.2 15.753846-3.150769-17.723077-5.12-29.144615-6.301538-35.052307-7.089231-37.021538-12.996923-65.378462-17.723077-85.07077-4.726154 0-9.452308 0.393846-13.784616 1.575385-2.363077 0.393846-6.301538 1.575385-11.421538 3.150769 3.150769 27.963077 8.270769 58.683077 14.966154 92.16l5.907692 31.113846c-15.36 3.938462-30.72 6.695385-46.08 9.846154-30.326154 5.907692-49.624615 8.270769-57.107692 6.695385-1.181538-10.633846 0.393846-35.84 5.513846-76.012308 5.513846-35.84 12.996923-71.68 22.843077-106.732307-7.876923-4.726154-17.329231-6.695385-26.387692-5.12-27.963077 98.067692-37.809231 170.535385-28.75077 217.00923 21.267692 2.363077 50.412308-0.393846 89.009231-7.876923zM864.886154 633.698462c-2.756923 11.027692-4.332308 21.267692-6.301539 31.113846h27.569231c2.363077-9.846154 4.726154-18.904615 7.089231-27.569231 18.510769 2.363077 37.021538 3.150769 55.532308 2.756923 1.969231-7.089231 3.150769-14.572308 2.756923-22.055385-16.935385-1.575385-34.658462-3.938462-52.381539-6.301538 3.938462-17.329231 7.089231-28.750769 8.270769-34.264615 8.270769-36.233846 14.178462-64.196923 17.723077-83.889231-4.332308-1.969231-8.664615-3.544615-12.996923-4.332308-2.363077-0.393846-5.907692-0.787692-11.421538-1.575385-8.270769 26.387692-15.753846 56.32-23.236923 89.009231l-6.695385 30.72c-14.966154-2.756923-30.326154-5.907692-45.292308-9.452307-29.932308-6.695385-48.443077-11.815385-54.350769-16.541539 3.150769-10.24 14.572308-32.295385 35.052308-66.56 19.298462-30.326154 40.172308-59.470769 63.015385-87.433846-5.12-7.876923-12.603077-13.390769-21.661539-15.36-64.196923 77.193846-102.006154 138.633846-112.246154 184.32 18.116923 10.24 45.686154 19.692308 83.495385 28.356923 15.36 3.150769 30.326154 6.301538 46.08 9.058462z" fill="#004EDD" p-id="3573"></path><path d="M374.153846 651.421538c1.575385 1.969231 4.726154 7.089231 8.664616 13.39077h158.72c-4.332308-5.513846-10.24-11.027692-18.116924-15.753846-39.778462-24.418462-118.941538-48.836923-139.421538-48.443077-20.48 0.393846-58.683077 9.058462-58.683077 9.058461-3.150769 5.513846-1.575385 11.815385 3.150769 15.36 6.301538 5.513846 18.116923 8.664615 25.206154 11.027692 7.876923 3.544615 14.966154 9.058462 20.48 15.36z" fill="#A4D4FF" p-id="3574"></path><path d="M724.676923 610.461538c-1.969231-3.150769-16.935385 6.695385-24.024615 0s-12.209231-20.48-19.692308-23.630769-22.449231 3.544615-33.476923 0-16.147692-22.449231-30.72-28.750769-33.870769 0-34.658462 3.938462 8.270769 2.756923 12.209231 6.301538c5.513846 5.12 8.664615 12.209231 9.452308 19.692308 0.787692 8.270769 17.723077 16.147692 17.723077 16.147692-8.270769 3.544615-17.329231 5.12-26.387693 3.938462-7.876923-1.181538-15.753846-3.544615-23.236923-6.695385 0 0 16.147692-16.935385 16.147693-23.236923 0-6.301538-14.966154-11.421538-32.689231-5.513846s-27.569231-5.513846-31.901539-11.421539-27.963077-30.72-53.16923-33.870769-57.107692 6.695385-77.587693 22.449231c-11.815385 9.058462-22.843077 19.692308-31.901538 31.507692 0 0-15.753846 6.301538-22.449231 9.452308s-20.873846 9.058462-15.753846 19.692307c2.363077 5.513846 16.147692 1.181538 23.630769 0 9.058462-1.181538 18.116923-1.181538 27.175385-0.787692 6.301538 0.787692 12.603077 1.969231 18.904615 3.938462 19.692308 5.907692 37.415385 17.329231 51.2 32.68923 6.301538 7.089231 12.209231 13.390769 17.723077 18.51077h155.963077c9.452308-14.178462 18.116923-35.052308 27.569231-41.353846 10.24-6.695385 27.175385-1.575385 37.415384 2.756923 10.24 4.332308 24.024615 3.544615 31.901539-2.756923 7.483077-6.301538 12.603077-9.846154 10.633846-12.996924z" fill="#55AAFF" p-id="3575"></path><path d="M419.052308 584.467692c3.938462-1.575385 8.270769 0 10.24 3.938462 0.393846 1.181538 0.787692 2.756923 0.787692 3.938461-0.393846 7.483077-3.150769 8.664615-5.513846 8.664616s-5.513846-4.332308-6.301539-7.089231c-0.787692-2.363077-2.363077-6.695385 0.787693-9.452308z" fill="#13153A" p-id="3576"></path><path d="M340.283077 549.415385s-10.633846-12.603077-8.664615-16.541539 14.966154-8.270769 17.32923-17.329231c3.150769-14.178462-7.089231-26.781538-23.630769-30.72s-34.658462 1.575385-43.716923 14.572308c-9.058462 12.996923 0 31.113846 11.421538 35.052308 9.058462 2.363077 18.510769 3.544615 27.963077 2.756923 3.150769 7.483077 11.027692 12.209231 19.298462 12.209231z" fill="#92C4F5" p-id="3577"></path><path d="M336.738462 545.870769s-9.452308-11.027692-7.483077-14.966154 13.390769-7.483077 15.36-15.36c2.756923-12.603077-6.301538-23.630769-20.873847-27.175384s-30.72 1.575385-38.596923 12.996923 0 27.569231 10.24 31.113846c8.270769 2.363077 16.541538 3.150769 24.812308 2.363077 2.756923 6.695385 9.452308 11.027692 16.541539 11.027692z" fill="#FFFFFF" p-id="3578"></path><path d="M288.689231 509.243077c0-5.12 1.969231-7.483077 5.907692-7.483077s5.907692 2.363077 5.907692 7.483077-1.969231 7.483077-5.907692 7.483077-5.907692-2.363077-5.907692-7.483077z m8.270769 0c0-3.544615-0.787692-4.726154-2.756923-4.726154s-2.363077 1.181538-2.363077 4.726154 0.787692 4.726154 2.363077 4.726154c2.363077 0 2.756923-1.181538 2.756923-4.726154zM301.686154 511.212308c0-3.544615 1.575385-5.513846 4.726154-5.513846s4.726154 1.969231 4.726154 5.513846-1.575385 5.513846-4.726154 5.513846-4.726154-1.969231-4.726154-5.513846z m5.907692 0c0-2.363077-0.393846-3.150769-1.575384-3.15077s-1.575385 0.393846-1.575385 3.15077 0.393846 3.150769 1.575385 3.150769c1.575385 0 1.575385-0.787692 1.575384-3.150769zM312.32 506.092308h2.756923v1.181538c0.787692-0.787692 1.575385-1.181538 2.756923-1.181538 2.363077 0 3.150769 1.575385 3.150769 5.12s-1.575385 5.907692-5.12 5.907692H315.076923v4.332308h-3.150769v-15.36h0.393846z m5.907692 5.12c0-2.363077-0.393846-3.150769-1.181538-3.15077-1.181538 0-1.181538 0.787692-1.181539 3.938462v1.969231c0.393846 0 0.393846 0.393846 1.181539 0.393846 0.787692 0 1.181538-0.393846 1.181538-3.150769zM322.56 515.938462v-2.363077c0.787692 0.393846 1.969231 0.393846 3.150769 0.393846 0.787692 0 1.181538-0.393846 1.181539-0.787693 0-1.575385-4.332308 0.393846-4.332308-4.332307 0-2.363077 1.181538-3.544615 3.544615-3.544616 0.787692 0 1.969231 0 3.15077 0.393847v2.363076c-1.181538-0.393846-1.969231-0.393846-2.363077-0.393846-0.787692 0-1.181538 0.393846-1.181539 0.787693 0 1.575385 4.332308 0 4.332308 3.938461 0 1.969231-1.575385 3.544615-4.332308 3.544616-0.787692 0.787692-1.969231 0.393846-3.150769 0zM336.344615 513.575385v3.150769h-3.150769v-3.150769h3.150769z m0-11.815385v10.633846h-2.756923v-10.633846h2.756923z" fill="#549EF6" p-id="3579"></path><path d="M193.378462 303.261538m-6.695385 0a6.695385 6.695385 0 1 0 13.390769 0 6.695385 6.695385 0 1 0-13.390769 0Z" fill="#D4EEFF" p-id="3580"></path><path d="M597.858462 365.095385m-11.027693 0a11.027692 11.027692 0 1 0 22.055385 0 11.027692 11.027692 0 1 0-22.055385 0Z" fill="#AFD9EF" p-id="3581"></path><path d="M521.452308 504.123077m-5.513846 0a5.513846 5.513846 0 1 0 11.027692 0 5.513846 5.513846 0 1 0-11.027692 0Z" fill="#AEE0FC" p-id="3582"></path><path d="M526.966154 158.326154m-7.089231 0a7.089231 7.089231 0 1 0 14.178462 0 7.089231 7.089231 0 1 0-14.178462 0Z" fill="#D4EEFF" p-id="3583"></path><path d="M783.753846 294.990769m-3.938461 0a3.938462 3.938462 0 1 0 7.876923 0 3.938462 3.938462 0 1 0-7.876923 0Z" fill="#D4EEFF" p-id="3584"></path><path d="M231.975385 348.16m-11.027693 0a11.027692 11.027692 0 1 0 22.055385 0 11.027692 11.027692 0 1 0-22.055385 0Z" fill="#C5EAFF" p-id="3585"></path><path d="M579.741538 437.956923c-7.089231 3.938462-12.996923 10.24-16.935384 17.329231 14.966154 19.298462 24.812308 33.870769 29.144615 44.110769 6.301538 14.966154 9.058462 33.870769 9.058462 57.107692 0 29.932308-11.421538 56.32-33.083077 80.344616-16.541538 14.572308-33.870769 24.024615-51.593846 27.963077h65.772307c29.144615-23.630769 48.443077-59.864615 49.23077-100.43077v-5.907692c0-51.593846-17.329231-91.766154-51.593847-120.516923z" fill="#004EDD" p-id="3586"></path></svg>
