<?xml version="1.0" encoding="UTF-8"?>
<svg width="400px" height="451px" viewBox="0 0 400 451" version="1.1" xmlns="http://www.w3.org/2000/svg" xmlns:xlink="http://www.w3.org/1999/xlink">
    <title>Group</title>
    <g id="Page-1" stroke="none" stroke-width="1" fill="none" fill-rule="evenodd">
        <g id="Group" fill-rule="nonzero">
            <path d="M197.549233,99.800821 C199.868015,99.800821 201.848381,100.138917 203.496596,100.815108 L289.034596,150.928393 C290.870821,151.704761 292.851187,152.092945 294.975692,152.092945 C297.300742,152.092945 299.519252,151.604585 301.650025,150.640386 L380.952381,106.17455 L196.966404,0 L12.6984127,106.17455 L93.1601594,151.222662 C94.9023796,151.992769 96.8326093,152.380952 98.9633822,152.380952 C101.282165,152.380952 103.212394,151.992769 104.760338,151.222662 L191.457729,100.959112 C193.48823,100.189005 195.518732,99.800821 197.549233,99.800821" id="Fill-5" fill="#5BCA87"></path>
            <path d="M314.895773,181.234505 C312.007979,184.292161 310.491095,187.961347 310.364159,192.242065 L311.792188,286.890695 C311.760454,291.070542 310.192795,294.544291 307.101904,297.311942 L304.931299,299.386105 L225.20281,348.277074 C223.451094,349.077739 221.807273,350.269279 220.258654,351.851694 C217.466062,354.613041 215.999952,358.187661 215.873016,362.562946 L217.205844,450.793651 L400,342.023065 L396.845641,133.333333 L319.979559,177.514882 C318.037438,178.510985 316.342843,179.75296 314.895773,181.234505" id="Fill-7" fill="#EC5D3E"></path>
            <path d="M91.9145784,300.938627 C88.9806625,298.242809 87.4218217,294.873037 87.2253824,290.83555 L87.2253824,196.563049 C87.2253824,192.612927 85.6602048,189.006022 82.5298496,185.736095 C80.7745695,184.194736 79.0636467,182.990355 77.4034178,182.12295 L0,139.68254 L0,346.705127 L184.126984,450.793651 L184.126984,363.447904 C184.025596,359.117122 182.511113,355.603823 179.577197,352.908005 C177.916968,351.273041 176.206045,350.118582 174.450765,349.444628 L94.2591764,302.96049 L91.9145784,300.938627 Z" id="Fill-9" fill="#2464F5"></path>
        </g>
    </g>
</svg>